<svg xmlns="http://www.w3.org/2000/svg" viewBox="0 0 512 512" style="enable-background:new 0 0 512 512" xml:space="preserve" fill="#d8e3ee">
  <path d="M459.04 85.675c-21.7-6.332-32.939 15.462-40.67 30.447l-24.695 57.958 15.659-104.422c2.244-13.628-.375-25.677-7.381-33.929-5.547-6.537-13.389-10.129-22.101-10.129-16.7 0-31.249 14.549-37.146 37.41l-18.586 86.81V42.906c.358-13.056-3.635-24.559-11.255-32.384C306.174 3.635 297.155 0 286.787 0c-29.065 0-36.173 28.45-39.211 40.593a8.198 8.198 0 0 0-.247 1.698l-4.403 101.265-12.724-93.286c-3.985-36.318-25.404-41.737-37.82-41.737-22.554 0-38.929 17.946-38.903 43.298l17.067 230.4c.35 4.693 4.284 8.243 9.139 7.876a8.526 8.526 0 0 0 7.876-9.139L170.52 51.2c0-12.74 6.758-25.6 21.862-25.6 4.446 0 17.946 0 20.881 26.752l25.6 187.733c.597 4.378 4.565 7.603 8.849 7.373a8.542 8.542 0 0 0 8.132-8.158l8.491-195.388c5.726-22.332 12.851-26.846 22.451-26.846 5.734 0 10.394 1.801 13.85 5.35 4.378 4.497 6.647 11.605 6.417 20.25V230.4a8.543 8.543 0 0 0 7.629 8.491c4.395.384 8.329-2.441 9.242-6.707L359.32 66.935c3.115-12.083 10.675-24.269 20.531-24.269 3.669 0 6.81 1.417 9.088 4.104 3.652 4.309 4.958 11.639 3.541 20.233l-25.6 170.667a8.523 8.523 0 0 0 6.11 9.472c4.156 1.169 8.508-.913 10.18-4.864l50.62-118.895c10.402-20.07 15.061-22.886 20.471-21.325 3.849 1.118 8.627 2.517 5.914 15.915-.247 1.109-25.062 111.386-33.348 162.261-2.603 16.009-4.395 35.49-6.46 58.044-4.343 47.275-9.702 105.685-25.66 156.655H203.049C183.405 408.482 115.71 300.023 74.187 258.5c-7.424-7.424-20.326-21.615-23.04-24.593.077-.154.205-.384.444-.7l3.695-3.593c9.967-9.958 43.315-9.95 53.282 0l32.666 32.666c3.337 3.328 8.738 3.328 12.066 0 3.337-3.336 3.337-8.738 0-12.066l-32.666-32.666c-16.64-16.64-60.774-16.64-77.329-.094l-4.002 3.891a7.763 7.763 0 0 0-.623.683c-5.717 6.912-6.212 15.13-1.306 21.999.188.265.393.521.614.759.631.7 15.539 17.195 24.132 25.779 40.977 40.986 108.407 149.598 125.517 233.839.461 4.267 4.087 7.595 8.482 7.595h204.8a8.516 8.516 0 0 0 8.09-5.837c18.057-54.17 23.765-116.352 28.348-166.323 2.048-22.238 3.814-41.446 6.323-56.858 8.183-50.372 32.896-160.154 33.186-161.434 4.856-23.943-7.014-32.715-17.826-35.872z"/>
</svg>
