<svg xmlns="http://www.w3.org/2000/svg" viewBox="0 0 512 512" style="enable-background:new 0 0 512 512" xml:space="preserve" fill="#d8e3ee">
  <path d="M378.384 40.795c-54.014 0-101.531 32.55-122.384 79.943-20.854-47.394-68.37-79.943-122.384-79.943C59.94 40.795 0 100.734 0 174.41c0 72.631 82.38 143.344 121.97 177.325l.355.305c33.891 29.092 125.76 115.522 126.684 116.392a10.173 10.173 0 0 0 6.991 2.772c2.513 0 5.026-.924 6.991-2.772.924-.87 92.791-87.299 126.684-116.392l.355-.305C429.62 317.753 512 247.04 512 174.41c0-73.676-59.94-133.615-133.616-133.615zm-1.641 295.464-.355.305C347.688 361.2 278.267 426.128 256 447.015c-22.267-20.887-91.688-85.815-120.388-110.451l-.355-.305c-34.37-29.503-114.859-98.592-114.859-161.849 0-62.428 50.789-113.217 113.217-113.217 56.727 0 104.993 42.352 112.27 98.515a10.2 10.2 0 0 0 20.23 0c7.278-56.163 55.543-98.515 112.27-98.515 62.428 0 113.217 50.789 113.217 113.217 0 63.257-80.489 132.346-114.859 161.849z"/>
  <path d="M263.991 402.575c-33.698-31.466-78.487-72.94-100.495-91.832l-.31-.266c-3.813-3.273-8.135-6.982-12.761-11.028-4.24-3.709-10.684-3.279-14.391.962-3.709 4.239-3.278 10.683.962 14.391 4.698 4.109 9.058 7.852 12.904 11.154l.31.266c22.887 19.646 72.389 65.612 99.859 91.263a10.163 10.163 0 0 0 6.959 2.745c2.727 0 5.448-1.087 7.457-3.238 3.844-4.119 3.624-10.572-.494-14.417zM122.645 273.979c-6.486-6.297-12.612-12.551-18.21-18.59-3.83-4.132-10.283-4.377-14.414-.548-4.132 3.83-4.377 10.283-.548 14.414 5.84 6.301 12.22 12.815 18.962 19.36a10.159 10.159 0 0 0 7.103 2.881c2.661 0 5.319-1.035 7.32-3.094 3.925-4.042 3.829-10.499-.213-14.423z"/>
</svg>
