<svg fill="#000000" xmlns="http://www.w3.org/2000/svg"  viewBox="0 0 100 100" width="200px" height="200px"><path d="M 31.603516 14 C 29.641298 14 27.957849 15.440939 27.652344 17.378906 L 18.035156 78.533203 L 18.035156 78.535156 C 17.753183 80.33677 19.176452 82 21 82 L 32.748047 82 L 32.035156 86.535156 C 31.753025 88.336342 33.176452 90 35 90 L 36.433594 90 L 47.0625 90 C 49.024718 90 50.71012 88.559061 51.015625 86.621094 L 53.519531 70.689453 C 53.674026 69.70942 54.504312 69 55.496094 69 L 59.025391 69 C 63.362937 69 69.047258 67.674441 73.728516 63.992188 C 78.409774 60.309933 82 54.220331 82 45.070312 C 82 40.407041 80.203174 36.104651 75.832031 33.552734 C 75.925795 32.488362 76 31.40399 76 30.25 C 76 25.801527 74.377135 21.660686 70.896484 18.705078 C 67.415834 15.749471 62.162571 14 55 14 L 31.603516 14 z M 31.603516 16 L 55 16 C 61.837429 16 66.584166 17.664623 69.603516 20.228516 C 72.622865 22.792408 74 26.276473 74 30.25 C 74 31.419636 73.938293 32.528231 73.837891 33.59375 C 71.322714 32.530359 68.195095 32 64.5 32 L 43.804688 32 C 42.53957 32 41.460909 32.921883 41.263672 34.171875 L 37.820312 56.117188 L 37.630859 57.330078 L 34.074219 80 L 21 80 C 20.367548 80 19.913692 79.470089 20.011719 78.84375 L 29.626953 17.689453 C 29.781448 16.70942 30.611733 16 31.603516 16 z M 35.451172 19 C 33.731563 19 32.261893 20.258548 31.994141 21.957031 L 23.429688 76.421875 A 0.50027827 0.50027827 0 0 0 24.417969 76.578125 L 32.982422 22.111328 C 33.174669 20.891812 34.216781 20 35.451172 20 L 43.5 20 A 0.50005 0.50005 0 1 0 43.5 19 L 35.451172 19 z M 47.5 19 A 0.50005 0.50005 0 1 0 47.5 20 L 50.5 20 A 0.50005 0.50005 0 1 0 50.5 19 L 47.5 19 z M 53.5 19 A 0.50005 0.50005 0 1 0 53.5 20 L 54.5 20 A 0.50005 0.50005 0 1 0 54.5 19 L 53.5 19 z M 43.804688 33 L 64.5 33 C 68.242258 33 71.297091 33.59162 73.685547 34.662109 C 72.450815 44.296807 67.417922 49.346569 62.142578 52.023438 C 56.787731 54.740647 51.205477 55 49.365234 55 L 40.416016 55 C 39.862569 55 39.414435 55.286428 38.931641 55.490234 L 42.25 34.328125 C 42.372763 33.550117 43.017804 33 43.804688 33 z M 74.667969 35.101562 C 78.602467 37.265484 80 40.779664 80 45.070312 C 80 53.706294 76.732929 59.084176 72.492188 62.419922 C 68.251445 65.755668 62.947844 67 59.025391 67 L 55.496094 67 C 53.533876 67 51.850427 68.440939 51.544922 70.378906 L 49.039062 86.310547 C 48.884569 87.29058 48.054282 88 47.0625 88 L 36.433594 88 L 35 88 C 34.367548 88 33.91385 87.470518 34.011719 86.845703 L 34.738281 82.214844 L 38.773438 56.494141 C 39.246648 56.184195 39.804338 56 40.416016 56 L 49.365234 56 C 51.295992 56 57.015051 55.747806 62.595703 52.916016 C 68.042024 50.15239 73.328647 44.859166 74.667969 35.101562 z M 76.208984 41.994141 A 0.50005 0.50005 0 0 0 75.744141 42.611328 C 75.904061 43.306842 76 44.111916 76 45.070312 C 76 55.096678 70.926066 59.416308 66.302734 61.396484 A 0.50047777 0.50047777 0 1 0 66.697266 62.316406 C 71.571934 60.228582 77 55.439947 77 45.070312 C 77 44.044711 76.896829 43.163158 76.71875 42.388672 A 0.50005 0.50005 0 0 0 76.208984 41.994141 z M 63.511719 62.367188 A 0.50005 0.50005 0 0 0 63.376953 62.382812 C 62.225983 62.673975 61.210228 62.82928 60.447266 62.910156 A 0.50005 0.50005 0 1 0 60.552734 63.904297 C 61.355772 63.819177 62.418017 63.658353 63.623047 63.353516 A 0.50005 0.50005 0 0 0 63.511719 62.367188 z M 56.5 63 A 0.50005 0.50005 0 1 0 56.5 64 L 57.5 64 A 0.50005 0.50005 0 1 0 57.5 63 L 56.5 63 z"/></svg>