<?xml version="1.0" encoding="utf-8"?>
<!-- Generator: Adobe Illustrator 24.2.3, SVG Export Plug-In . SVG Version: 6.00 Build 0)  -->
<svg version="1.1" id="Слой_1" xmlns="http://www.w3.org/2000/svg" xmlns:xlink="http://www.w3.org/1999/xlink" x="0px" y="0px"
	 viewBox="0 0 1038 320" style="enable-background:new 0 0 1038 320;" xml:space="preserve">
<style type="text/css">
	.st0{fill:url(#SVGID_1_);}
	.st1{fill:#8DC641;}
	.st2{fill:#FFFFFF;}
</style>
<linearGradient id="SVGID_1_" gradientUnits="userSpaceOnUse" x1="9.4" y1="838" x2="321.6" y2="838" gradientTransform="matrix(1 0 0 1 0 -678)">
	<stop  offset="0" style="stop-color:#333333"/>
	<stop  offset="1" style="stop-color:#000000"/>
</linearGradient>
<path class="st0" d="M165.5,3.9L165.5,3.9c86.2,0,156.1,69.9,156.1,156.1l0,0c0,86.2-69.9,156.1-156.1,156.1l0,0
	C79.3,316.1,9.4,246.2,9.4,160l0,0C9.4,73.8,79.3,3.9,165.5,3.9z"/>
<path class="st1" d="M165.5,2.9C78.8,2.9,8.4,73.2,8.4,160s70.3,157.1,157.1,157.1S322.6,246.8,322.6,160S252.3,2.9,165.5,2.9z
	 M165.5,299.8c-77.2,0-139.8-62.6-139.8-139.8S88.3,20.2,165.5,20.2S305.3,82.8,305.3,160S242.7,299.8,165.5,299.8z"/>
<path class="st2" d="M220.4,124.3l-35,51.9h35V124.3z M233.6,103.3v73H249v13.2h-15.4v27.3h-13.3v-27.3h-49.5v-14.2l49.9-71.9
	L233.6,103.3L233.6,103.3z M156.2,203.5v13.2H82v-0.4c0.7-12.4,3.9-21.5,10.1-29c5-6.2,11.1-10.8,23.6-18.6c0,0,4.4-2.8,5.7-3.6
	c6.7-4.3,11-7.7,14.5-11.6c4.3-5,6.5-10.4,6.5-16.8c0-12.4-8.8-20.9-21.4-20.9c-14.7,0-22.2,11.2-22.6,27.9v0.3H85.2v-0.3l-0.1-3
	c0-22.4,14.6-37.4,36.6-37.4c21.5,0,35.5,13,35.5,33.1c0,10.3-3.7,18.6-10.8,25.9c-5.3,5.6-10.8,9.3-23.1,16.8
	c-0.2,0.1-0.3,0.2-0.5,0.3c-0.6,0.3-3.3,1.9-4,2.4c-5.9,3.5-9.5,6-12.7,9c-3.9,3.7-6.5,7.8-7.7,12.6h57.8V203.5z"/>
<path d="M403.8,96.7h52.3c13,0,23.2,3.1,30.7,9.2c7.5,6.2,11.3,15.3,11.3,27.5c0,11.5-3.5,20.6-10.5,27.3s-16.5,10.1-28.6,10.1h-34
	v46.4h-21.2L403.8,96.7L403.8,96.7z M425,114.4v39.5h29.5c15.4,0,23-6.6,23-19.8c0-13.1-8.3-19.6-24.9-19.6L425,114.4L425,114.4z"/>
<path d="M560.9,128.2v18.5c-3.4-0.3-5.6-0.5-6.8-0.5c-16.8,0-25.2,10.9-25.2,32.7v38.4h-19.1v-87.4h18.1v17.4
	c6.2-13,16-19.5,29.3-19.5L560.9,128.2z"/>
<path d="M592.4,96.2v19h-19.3v-19H592.4z M592.4,129.9v87.4h-19.3v-87.4H592.4z"/>
<path d="M606.1,129.9h21l22.4,67.2l21.5-67.2h20l-31.3,87.6H638L606.1,129.9z"/>
<path d="M697.6,156.9c2-19.8,14.8-29.6,38.3-29.6c10.9,0,19.7,2.1,26.2,6.4s9.7,11,9.7,20V198c0,2.5,0.3,4.2,0.9,5.1
	c0.6,0.9,1.8,1.4,3.6,1.4c1.4,0,2.8-0.1,4.4-0.3v13.6c-5,1.2-9.1,1.9-12.5,1.9c-8.2,0-13-3.5-14.2-10.5c-7.3,7-17.6,10.5-30.7,10.5
	c-9,0-16.2-2.3-21.5-7s-8-11-8-19.1c0-2.5,0.3-4.8,0.8-6.9c0.6-2.1,1.2-4,2-5.6c0.7-1.6,1.9-3,3.6-4.4c1.6-1.4,3-2.5,4.1-3.4
	s2.8-1.7,5.3-2.5c2.4-0.8,4.2-1.4,5.4-1.8c1.2-0.4,3.2-0.8,6.2-1.3c2.9-0.4,4.9-0.8,5.8-0.9c1-0.2,3-0.4,6-0.8
	c6.9-0.9,11.6-1.7,14.1-2.3s4.2-1.6,5.1-2.8c0.8-0.9,1.2-3,1.2-6.3c0-8.8-6-13.2-18-13.2c-6.3,0-10.9,1.2-13.9,3.6
	c-2.9,2.4-4.8,6.4-5.6,12h-18.3L697.6,156.9L697.6,156.9z M753.1,173.5c-1.5,0.8-3.2,1.5-5.1,2.1c-1.9,0.6-3.5,1-4.7,1.2
	s-3,0.4-5.6,0.8c-2.5,0.3-4.2,0.6-5,0.7c-2.4,0.3-4.2,0.7-5.6,0.9c-1.4,0.3-3,0.8-5,1.4c-2,0.7-3.5,1.5-4.6,2.5s-2,2.3-2.8,3.9
	c-0.8,1.6-1.2,3.6-1.2,5.8c0,4.2,1.4,7.4,4.1,9.6c2.8,2.3,6.6,3.4,11.6,3.4c8.6,0,15.2-2.3,19.8-6.9c2.6-2.6,3.9-7.6,3.9-15.1v-10.3
	L753.1,173.5L753.1,173.5z"/>
<path d="M836.1,129.9V144h-17.6v46c0,2.7,0.1,4.6,0.2,5.7c0.1,1.1,0.4,2.3,1,3.6s1.6,2.2,3,2.6c1.4,0.5,3.4,0.7,5.8,0.7
	c3.2,0,5.7-0.1,7.6-0.3v15.2c-3.8,0.4-8.2,0.7-13,0.7c-3.4,0-6.4-0.3-8.9-0.8s-4.7-1.1-6.4-1.8s-3.1-1.8-4.2-3.5
	c-1.1-1.6-2-3-2.6-4.1s-1.1-3-1.4-5.7c-0.3-2.7-0.4-4.8-0.4-6.2s0-3.9,0-7.4c0-0.4,0-0.8,0-1.1s0-0.6,0-1s0-0.8,0-1.1V144h-14.6
	v-14.1h14.6v-26.3h19.3v26.3H836.1z"/>
<path d="M937.6,200.2v17.1h-80.9c0.1-5.3,0.8-10.2,2.2-14.6c1.4-4.4,2.9-8.2,4.7-11.3c1.7-3.1,4.3-6.3,7.8-9.5
	c3.4-3.2,6.5-5.9,9.3-8s6.6-4.8,11.4-8c0.3-0.2,2-1.3,5-3.3s4.8-3.2,5.5-3.7s2.2-1.7,4.6-3.6c2.4-1.9,3.9-3.4,4.7-4.5
	c0.7-1.1,1.7-2.7,3-4.6c1.3-1.9,2.2-3.9,2.6-5.8c0.4-2,0.7-4.1,0.7-6.3c0-6.2-1.7-11.1-5.2-14.6c-3.4-3.6-8.1-5.3-14-5.3
	c-3.4,0-6.3,0.5-8.8,1.6s-4.4,2.5-5.8,4.1c-1.4,1.7-2.6,3.9-3.5,6.5c-0.9,2.7-1.5,5.2-1.8,7.5c-0.3,2.4-0.5,5.1-0.6,8.3h-18.8v-3
	c0-12.8,3.6-22.9,10.8-30.4s16.9-11.3,29-11.3c11.5,0,20.8,3.2,27.8,9.7s10.5,15.1,10.5,25.8c0,4.3-0.7,8.4-2,12.2
	c-1.4,3.8-2.8,6.9-4.3,9.3c-1.5,2.4-4.2,5.1-7.9,8.3s-6.5,5.4-8.3,6.6c-1.8,1.2-5.1,3.5-10,6.8c-14.1,9.1-22.6,17.1-25.4,23.9h57.7
	V200.2z"/>
<path d="M1029.6,172.9v16.3h-15.1v28.1h-18.6l-0.2-28.1h-50.3v-19.1l50.8-72.3h18.3V173L1029.6,172.9L1029.6,172.9z M996,172.9
	v-51.3l-34.7,51.3H996z"/>
</svg>
