<?xml version="1.0" encoding="iso-8859-1"?>
<!-- Generator: Adobe Illustrator 17.1.0, SVG Export Plug-In . SVG Version: 6.00 Build 0)  -->
<!DOCTYPE svg PUBLIC "-//W3C//DTD SVG 1.1//EN" "http://www.w3.org/Graphics/SVG/1.1/DTD/svg11.dtd">
<svg version="1.1" id="Capa_1" xmlns="http://www.w3.org/2000/svg" xmlns:xlink="http://www.w3.org/1999/xlink" x="0px" y="0px"
	 viewBox="0 0 203.833 203.833" style="enable-background:new 0 0 203.833 203.833;" xml:space="preserve">
<path d="M156.229,203.833H47.604c-1.657,0-3-1.343-3-3V14.094C44.604,6.322,50.926,0,58.698,0h86.438
	c7.771,0,14.094,6.322,14.094,14.094v186.739C159.229,202.49,157.886,203.833,156.229,203.833z M50.604,197.833h102.625v-57.667
	H50.604V197.833z M50.604,134.167h102.625V14.094c0-4.463-3.631-8.094-8.094-8.094H58.698c-4.463,0-8.094,3.631-8.094,8.094V134.167
	z M93.586,127.219H92.02c-1.657,0-3-1.343-3-3s1.343-3,3-3h1.566c1.657,0,3,1.343,3,3S95.243,127.219,93.586,127.219z
	 M80.729,127.219h-1.566c-1.657,0-3-1.343-3-3s1.343-3,3-3h1.566c1.657,0,3,1.343,3,3S82.386,127.219,80.729,127.219z
	 M67.873,127.219h-1.566c-1.657,0-3-1.343-3-3s1.343-3,3-3h1.566c1.657,0,3,1.343,3,3S69.53,127.219,67.873,127.219z
	 M137.527,123.021h-23.213c-1.657,0-3-1.343-3-3v-14.956c0-1.657,1.343-3,3-3h23.213c1.657,0,3,1.343,3,3v14.956
	C140.527,121.677,139.184,123.021,137.527,123.021z M117.314,117.021h17.213v-8.956h-17.213V117.021z M93.586,117.642H92.02
	c-1.657,0-3-1.343-3-3s1.343-3,3-3h1.566c1.657,0,3,1.343,3,3S95.243,117.642,93.586,117.642z M80.729,117.642h-1.566
	c-1.657,0-3-1.343-3-3s1.343-3,3-3h1.566c1.657,0,3,1.343,3,3S82.386,117.642,80.729,117.642z M67.873,117.642h-1.566
	c-1.657,0-3-1.343-3-3s1.343-3,3-3h1.566c1.657,0,3,1.343,3,3S69.53,117.642,67.873,117.642z M93.586,108.065H92.02
	c-1.657,0-3-1.343-3-3s1.343-3,3-3h1.566c1.657,0,3,1.343,3,3S95.243,108.065,93.586,108.065z M80.729,108.065h-1.566
	c-1.657,0-3-1.343-3-3s1.343-3,3-3h1.566c1.657,0,3,1.343,3,3S82.386,108.065,80.729,108.065z M67.873,108.065h-1.566
	c-1.657,0-3-1.343-3-3s1.343-3,3-3h1.566c1.657,0,3,1.343,3,3S69.53,108.065,67.873,108.065z M137.527,94.421h-71.22
	c-1.657,0-3-1.343-3-3V23.203c0-1.657,1.343-3,3-3h71.22c1.657,0,3,1.343,3,3v68.218C140.527,93.078,139.184,94.421,137.527,94.421z
	 M69.307,88.421h65.22V26.203h-65.22V88.421z"/>
<g>
</g>
<g>
</g>
<g>
</g>
<g>
</g>
<g>
</g>
<g>
</g>
<g>
</g>
<g>
</g>
<g>
</g>
<g>
</g>
<g>
</g>
<g>
</g>
<g>
</g>
<g>
</g>
<g>
</g>
</svg>
